<svg viewBox="0 0 492.014 492.014" xmlns="http://www.w3.org/2000/svg" xmlns:xlink="http://www.w3.org/1999/xlink" id="Capa_1" overflow="hidden"><g id="XMLID_144_"><path d="M339.277 459.566 34.922 459.566 34.922 32.446 339.276 32.446 339.276 138.319 371.722 105.872 371.722 16.223C371.723 7.264 364.458 0 355.5 0L18.699 0C9.739 0 2.473 7.264 2.473 16.223L2.473 475.791C2.473 484.75 9.738 492.014 18.699 492.014L355.5 492.014C364.458 492.014 371.723 484.75 371.723 475.791L371.723 297.268 339.277 329.715 339.277 459.566Z" id="XMLID_151_" stroke="#FFFFFF" fill="#FFFFFF"/><path d="M291.446 71.359 82.751 71.359C75.908 71.359 70.355 76.912 70.355 83.757 70.355 90.601 75.908 96.154 82.751 96.154L291.445 96.154C298.29 96.154 303.842 90.601 303.842 83.757 303.843 76.912 298.29 71.359 291.446 71.359Z" id="XMLID_150_" stroke="#FFFFFF" fill="#FFFFFF"/><path d="M303.843 149.876C303.843 143.032 298.29 137.478 291.446 137.478L82.751 137.478C75.908 137.478 70.355 143.032 70.355 149.876 70.355 156.721 75.908 162.274 82.751 162.274L291.445 162.274C298.29 162.274 303.843 156.722 303.843 149.876Z" id="XMLID_149_" stroke="#FFFFFF" fill="#FFFFFF"/><path d="M274.004 203.6 82.751 203.6C75.908 203.6 70.355 209.154 70.355 215.998 70.355 222.843 75.908 228.395 82.751 228.395L249.208 228.395 274.004 203.6Z" id="XMLID_148_" stroke="#FFFFFF" fill="#FFFFFF"/><path d="M204.655 285.79C206.333 280.172 208.731 274.789 211.652 269.72L82.752 269.72C75.909 269.72 70.356 275.273 70.356 282.118 70.356 288.962 75.909 294.516 82.752 294.516L202.056 294.516 204.655 285.79Z" id="XMLID_147_" stroke="#FFFFFF" fill="#FFFFFF"/><path d="M82.751 335.842C75.908 335.842 70.355 341.395 70.355 348.24 70.355 355.083 75.908 360.637 82.751 360.637L191.651 360.637C188.438 352.841 187.607 344.228 189.876 335.842L82.751 335.842Z" id="XMLID_146_" stroke="#FFFFFF" fill="#FFFFFF"/><path d="M479.403 93.903C472.907 87.404 464.099 83.757 454.923 83.757 445.747 83.757 436.941 87.404 430.452 93.895L247.036 277.316C242.031 282.319 238.36 288.478 236.333 295.258L221.717 344.252C221.095 346.326 221.66 348.57 223.194 350.104 224.316 351.227 225.818 351.831 227.358 351.831 227.916 351.831 228.488 351.751 229.046 351.582L278.037 336.964C284.819 334.938 290.978 331.265 295.98 326.262L479.402 142.848C485.891 136.358 489.54 127.553 489.54 118.376 489.54 109.197 485.892 100.392 479.403 93.903Z" id="XMLID_145_" stroke="#FFFFFF" fill="#FFFFFF"/></g><g></g><g></g><g></g><g></g><g></g><g></g><g></g><g></g><g></g><g></g><g></g><g></g><g></g><g></g><g></g></svg>